<?xml version="1.0" encoding="utf-8"?>
<!-- Generator: Adobe Illustrator 23.0.6, SVG Export Plug-In . SVG Version: 6.00 Build 0)  -->
<svg version="1.1" id="レイヤー_1" xmlns="http://www.w3.org/2000/svg" xmlns:xlink="http://www.w3.org/1999/xlink" x="0px"
	 y="0px" viewBox="0 0 100 100" style="enable-background:new 0 0 100 100;" xml:space="preserve">
<path d="M87.5,49.9c0-1.5-0.6-2.8-1.6-3.7c-0.1-0.1-0.1-0.1-0.2-0.2L71.6,31.5c-1.9-2-5.1-2-7.1,0c-1.9,2-1.9,5.2,0,7.2l5.9,6.1
	H17.5c-2.8,0-5,2.3-5,5.1s2.3,5.1,5,5.1h53.1l-6.1,6.3c-1.9,2-1.9,5.2,0,7.2c1.9,2,5.1,2,7.1,0l14.1-14.5c0.4-0.4,0.6-0.8,0.8-1.2
	C87.1,52,87.5,51,87.5,49.9z"/>
</svg>
