<?xml version="1.0" encoding="utf-8"?>
<!-- Generator: Adobe Illustrator 23.0.6, SVG Export Plug-In . SVG Version: 6.00 Build 0)  -->
<svg version="1.1" id="レイヤー_1" xmlns="http://www.w3.org/2000/svg" xmlns:xlink="http://www.w3.org/1999/xlink" x="0px"
	 y="0px" viewBox="0 0 100 100" style="enable-background:new 0 0 100 100;" xml:space="preserve">
<path d="M75.7,68.5L57.2,50l18.5-18.5l2.1-2.1c1.9-1.9,1.9-5.2-0.1-7.1s-5.2-2-7.1-0.1l-2.1,2.1L50,42.8L31.5,24.3l-2.1-2.1
	c-1.9-1.9-5.2-1.9-7.1,0.1s-2,5.2-0.1,7.1l2.1,2.1L42.8,50L24.3,68.5l-2.1,2.1c-1.9,1.9-1.9,5.2,0.1,7.1s5.2,2,7.1,0.1l2.1-2.1
	L50,57.2l18.5,18.5l2.1,2.1c1.9,1.9,5.2,1.9,7.1-0.1c2-2,2-5.2,0.1-7.1L75.7,68.5z"/>
</svg>
