<?xml version="1.0" encoding="utf-8"?>
<!-- Generator: Adobe Illustrator 23.0.6, SVG Export Plug-In . SVG Version: 6.00 Build 0)  -->
<svg version="1.1" id="レイヤー_1" xmlns="http://www.w3.org/2000/svg" xmlns:xlink="http://www.w3.org/1999/xlink" x="0px"
	 y="0px" viewBox="0 0 100 100" style="enable-background:new 0 0 100 100;" xml:space="preserve">
<g>
	<path d="M71.2,48.9c-2.8,0-5,2.3-5,5v20h-40v-40h19c2.8,0,5-2.2,5-5s-2.3-5-5-5h-24c-2.8,0-5,2.3-5,5v50c0,2.8,2.3,5,5,5h50
		c2.8,0,5-2.3,5-5v-25C76.2,51.1,73.9,48.9,71.2,48.9z"/>
	<path d="M83.6,22.1c0-0.5-0.1-1-0.3-1.5c-0.2-1-0.6-2-1.4-2.8c-1-1-2.4-1.5-3.8-1.5c-0.1,0-0.2,0-0.3,0l-20.2-0.2c-2.8,0-5,2.2-5,5
		c0,2.8,2.3,5.1,5.1,5.1l8.5,0.1L43,49.6C41,51.5,41,54.8,43,56.7c2,2,5.2,2,7.1,0.1l23.4-23.4l0.1,8.8c0,2.8,2.3,5.1,5.1,5.1
		c2.8,0,5-2.2,5-5L83.6,22.1z"/>
</g>
</svg>
