<?xml version="1.0" encoding="utf-8"?>
<!-- Generator: Adobe Illustrator 23.0.6, SVG Export Plug-In . SVG Version: 6.00 Build 0)  -->
<svg version="1.1" id="レイヤー_1" xmlns="http://www.w3.org/2000/svg" xmlns:xlink="http://www.w3.org/1999/xlink" x="0px"
	 y="0px" viewBox="0 0 100 100" style="enable-background:new 0 0 100 100;" xml:space="preserve">
<path d="M87.5,43.6l-8.7-1.8c-0.7-2.5-1.7-4.8-3-7l5.1-7.7c0.2-0.3,0.1-0.9-0.2-1.2l-7.4-7.4c-0.3-0.3-0.8-0.4-1.2-0.2l-7.9,5.2
	c-2-1.1-4.2-2-6.5-2.6l-2-9.6c-0.1-0.4-0.5-0.7-0.9-0.7H44.5c-0.4,0-0.9,0.3-0.9,0.7l-2,9.7c-2.1,0.6-4.1,1.4-6,2.5l-8.5-5.6
	c-0.3-0.2-0.9-0.1-1.2,0.2l-7.4,7.4c-0.3,0.3-0.4,0.8-0.2,1.2l5.5,8.4C22.9,37,22,39,21.4,41.1l-9.9,2c-0.4,0.1-0.7,0.5-0.7,0.9
	v10.4c0,0.4,0.3,0.9,0.7,0.9l9.5,1.9c0.6,2.3,1.4,4.4,2.5,6.5l-5.3,8c-0.2,0.3-0.1,0.9,0.2,1.2l7.4,7.4c0.3,0.3,0.8,0.4,1.2,0.2
	l7.6-5c2.2,1.3,4.5,2.4,7,3.1l1.8,8.8c0.1,0.4,0.5,0.7,0.9,0.7h10.4c0.4,0,0.9-0.3,0.9-0.7l1.7-8.4c2.7-0.7,5.2-1.7,7.5-3l7.2,4.8
	c0.3,0.2,0.9,0.1,1.2-0.2l7.4-7.4c0.3-0.3,0.4-0.8,0.2-1.2l-4.7-7.1c1.4-2.3,2.4-4.8,3.1-7.5l8.5-1.7c0.4-0.1,0.7-0.5,0.7-0.9V44.5
	C88.3,44.1,87.9,43.7,87.5,43.6z M50,67.5c-9.7,0-17.5-7.8-17.5-17.5S40.3,32.5,50,32.5S67.5,40.3,67.5,50S59.7,67.5,50,67.5z"/>
</svg>
